<svg xmlns="http://www.w3.org/2000/svg" width="21.499" height="30.713" viewBox="0 0 21.499 30.713"><path id="Path_6" data-name="Path 6" d="M1046.45,1209.588a3.839,3.839,0,1,1,3.839-3.838A3.842,3.842,0,0,1,1046.45,1209.588Zm0-11.518a7.687,7.687,0,0,0-7.677,7.679c0,4.8,5.369,12.209,7.677,15.172,2.307-2.927,7.679-10.264,7.679-15.172A7.688,7.688,0,0,0,1046.45,1198.07Zm0,27.642h0a70.081,70.081,0,0,1-5.374-6.957c-2.452-3.634-5.375-8.84-5.375-13.005a10.75,10.75,0,1,1,21.5,0c0,4.165-2.923,9.371-5.375,13.005a70.362,70.362,0,0,1-5.374,6.957Z" transform="translate(-1035.7 -1194.999)"></path></svg>