<svg xmlns="http://www.w3.org/2000/svg" width="26.541" height="26.539" viewBox="0 0 26.541 26.539"><path id="Path" d="M29.539,22.786V28a1.474,1.474,0,0,1-1.371,1.471c-.644.044-1.171.068-1.578.068A23.59,23.59,0,0,1,3,5.949q0-.61.068-1.578A1.474,1.474,0,0,1,4.539,3H9.753a.737.737,0,0,1,.734.663c.034.339.065.609.094.814a20.5,20.5,0,0,0,1.781,5.9.672.672,0,0,1-.217.836L8.964,13.486A19.236,19.236,0,0,0,19.055,23.577L21.325,20.4a.681.681,0,0,1,.845-.22,20.5,20.5,0,0,0,5.9,1.777c.2.029.475.062.811.094a.737.737,0,0,1,.662.734Z" transform="translate(-3 -3)"></path></svg>