<svg xmlns="http://www.w3.org/2000/svg" width="9" height="16" viewBox="0 0 9 16"><path id="Color_Overlay" data-name="Color Overlay" d="M1384.849,34a.333.333,0,0,1-.339-.327V27.036h-2.171a.333.333,0,0,1-.338-.326V24.08a.333.333,0,0,1,.338-.327h2.171V21.938A3.716,3.716,0,0,1,1388.5,18l2.159,0a.333.333,0,0,1,.339.326v2.443a.334.334,0,0,1-.34.327h-1.453c-1,0-1.185.375-1.185,1.115v1.539h2.537a.35.35,0,0,1,.241.1.321.321,0,0,1,.1.23V26.71a.333.333,0,0,1-.34.326h-2.537v6.637a.334.334,0,0,1-.34.327Z" transform="translate(-1382 -18)" fill="#313131"></path></svg>