<svg xmlns="http://www.w3.org/2000/svg" width="52" height="58" viewBox="0 0 52 58"><g id="Group_14297" data-name="Group 14297" transform="translate(-38 -1703)"><rect id="Rectangle_594" data-name="Rectangle 594" width="52" height="58" rx="5" transform="translate(38 1703)" fill="#f9a34f"></rect><g id="Group_14286" data-name="Group 14286" transform="translate(-70.164 932.209)"><path id="Path_993" data-name="Path 993" d="M155.642,804.391v-7.083a5.269,5.269,0,0,0-3.725-5.031,4.7,4.7,0,1,0-5.446,0,5.269,5.269,0,0,0-3.725,5.031v7.083a.553.553,0,0,0,.553.553H155.09A.553.553,0,0,0,155.642,804.391Zm-10.047-15.942a3.6,3.6,0,1,1,3.6,3.6A3.6,3.6,0,0,1,145.595,788.449Zm8.942,15.389H143.851v-6.531a4.16,4.16,0,0,1,4.155-4.155h2.375a4.16,4.16,0,0,1,4.155,4.155Z" transform="translate(-15.031)" fill="#fff"></path><path id="Path_994" data-name="Path 994" d="M127.495,848.765h-2.418l-1.083-2.194a.553.553,0,0,0-.991,0l-1.083,2.194H119.5a.553.553,0,0,0-.4.936l1.808,1.872-.43,2.759a.553.553,0,0,0,.8.574l2.213-1.164,2.213,1.164a.553.553,0,0,0,.8-.574l-.429-2.759,1.808-1.872a.553.553,0,0,0-.4-.936ZM125.1,851a.551.551,0,0,0-.148.469l.3,1.945-1.5-.788a.553.553,0,0,0-.514,0l-1.5.788.3-1.945A.551.551,0,0,0,121.9,851L120.8,849.87h1.46a.553.553,0,0,0,.5-.308l.74-1.5.739,1.5a.554.554,0,0,0,.5.308h1.46Z" transform="translate(0 -39.489)" fill="#fff"></path><path id="Path_995" data-name="Path 995" d="M156.447,848.765h-2.418l-1.083-2.194a.553.553,0,0,0-.991,0l-1.083,2.194h-2.418a.553.553,0,0,0-.4.936l1.807,1.872-.429,2.759a.553.553,0,0,0,.8.574l2.213-1.164,2.213,1.164a.553.553,0,0,0,.8-.574l-.429-2.759,1.808-1.872a.553.553,0,0,0-.4-.936Zm-2.4,2.238a.551.551,0,0,0-.148.469l.3,1.945-1.5-.788a.553.553,0,0,0-.514,0l-1.5.788.3-1.945a.552.552,0,0,0-.148-.469l-1.094-1.133h1.46a.554.554,0,0,0,.5-.308l.739-1.5.739,1.5a.554.554,0,0,0,.5.308h1.46Z" transform="translate(-18.287 -39.489)" fill="#fff"></path><path id="Path_996" data-name="Path 996" d="M185.4,848.765h-2.418l-1.083-2.194a.553.553,0,0,0-.991,0l-1.083,2.194h-2.418a.553.553,0,0,0-.4.936l1.808,1.872-.43,2.759a.553.553,0,0,0,.8.574l2.213-1.164,2.213,1.164a.553.553,0,0,0,.8-.574l-.43-2.759L185.8,849.7a.553.553,0,0,0-.4-.936ZM183,851a.552.552,0,0,0-.148.469l.3,1.945-1.5-.788a.553.553,0,0,0-.514,0l-1.5.788.3-1.945A.551.551,0,0,0,179.8,851l-1.094-1.133h1.46a.554.554,0,0,0,.5-.308l.739-1.5.739,1.5a.554.554,0,0,0,.5.308h1.46Z" transform="translate(-36.575 -39.489)" fill="#fff"></path></g></g></svg>