<svg xmlns="http://www.w3.org/2000/svg" width="52" height="58" viewBox="0 0 52 58"><g id="Group_14288" data-name="Group 14288" transform="translate(-38 -1769)"><g id="Group_14298" data-name="Group 14298"><g id="Group_14299" data-name="Group 14299"><rect id="Rectangle_595" data-name="Rectangle 595" width="52" height="58" rx="5" transform="translate(38 1769)" fill="#f9a34f"></rect></g></g><g id="Group_14285" data-name="Group 14285" transform="translate(-603.872 1682.257)"><path id="Path_989" data-name="Path 989" d="M664.669,110.8h13.613a.623.623,0,0,0,0-1.246H664.669a.623.623,0,0,0,0,1.246Z" transform="translate(-5.322 -5.879)" fill="#fff"></path><path id="Path_990" data-name="Path 990" d="M664.669,121.917h13.613a.623.623,0,0,0,0-1.246H664.669a.623.623,0,0,0,0,1.246Z" transform="translate(-5.322 -12.376)" fill="#fff"></path><path id="Path_991" data-name="Path 991" d="M672.1,132.408a.623.623,0,0,0-.623-.623h-6.807a.623.623,0,0,0,0,1.246h6.807A.623.623,0,0,0,672.1,132.408Z" transform="translate(-5.322 -18.872)" fill="#fff"></path><path id="Path_992" data-name="Path 992" d="M659.243,131.448a.624.624,0,0,0,.441.182h17.059a.623.623,0,0,0,.623-.623V118.354l4.9-4.9h0l1.91-1.91a.623.623,0,0,0,0-.881l-1.719-1.72a.623.623,0,0,0-.881,0l-1.911,1.911h0l-2.3,2.3V100.123a.623.623,0,0,0-.623-.623H655.565a.623.623,0,0,0-.623.623v26.766a.622.622,0,0,0,.182.44Zm-.139-2.074-1.991-1.991H659.1Zm22.913-19.111.839.839-1.03,1.03-.839-.839Zm-1.911,1.911.839.839-9.21,9.209-1.124.286.285-1.124Zm-23.918-11.428H676.12V114.4l-6.225,6.225a.622.622,0,0,0-.163.287l-.586,2.306a.622.622,0,0,0,.757.757l2.306-.586a.622.622,0,0,0,.287-.163l3.624-3.624v10.784H660.35V126.76a.623.623,0,0,0-.623-.623h-3.539Z" fill="#fff"></path></g></g></svg>