<svg xmlns="http://www.w3.org/2000/svg" width="47.684" height="47.684" viewBox="0 0 47.684 47.684"><path id="Icon_ionic-md-happy" data-name="Icon ionic-md-happy" d="M27.217,3.375A23.842,23.842,0,1,0,51.059,27.217,23.835,23.835,0,0,0,27.217,3.375Zm0,42.915A19.073,19.073,0,1,1,46.291,27.217,19.13,19.13,0,0,1,27.217,46.29Zm8.345-21.458a3.576,3.576,0,1,0-3.576-3.576A3.512,3.512,0,0,0,35.561,24.833Zm-16.689,0A3.576,3.576,0,1,0,15.3,21.256,3.512,3.512,0,0,0,18.872,24.833Zm8.345,15.5a12.99,12.99,0,0,0,12.159-8.345H15.057A12.99,12.99,0,0,0,27.217,40.33Z" transform="translate(-3.375 -3.375)" fill="#e59b2b"></path></svg>