<svg xmlns="http://www.w3.org/2000/svg" width="36.769" height="49.026" viewBox="0 0 36.769 49.026"><path id="Icon_awesome-award" data-name="Icon awesome-award" d="M9.3,34.723c-.832-.832-.4-.6-2.405-1.135a6.908,6.908,0,0,1-2.435-1.275L.115,42.964a1.532,1.532,0,0,0,1.477,2.109l5.045-.192,3.47,3.665a1.532,1.532,0,0,0,2.531-.475l4.984-12.22A6.872,6.872,0,0,1,9.3,34.723Zm27.355,8.241L32.31,32.313a6.893,6.893,0,0,1-2.435,1.275c-2.018.54-1.575.3-2.405,1.135a6.873,6.873,0,0,1-8.324,1.129l4.984,12.22a1.532,1.532,0,0,0,2.531.475l3.471-3.665,5.045.192a1.533,1.533,0,0,0,1.477-2.109ZM25.183,32.556c1.463-1.489,1.631-1.361,3.714-1.928a3.891,3.891,0,0,0,2.726-2.775c.716-2.719.53-2.391,2.485-4.381a3.972,3.972,0,0,0,1-3.79c-.715-2.717-.716-2.338,0-5.059a3.972,3.972,0,0,0-1-3.79c-1.954-1.99-1.769-1.662-2.485-4.381A3.891,3.891,0,0,0,28.9,3.678c-2.67-.729-2.348-.538-4.3-2.529A3.81,3.81,0,0,0,20.869.133c-2.669.728-2.3.729-4.97,0a3.808,3.808,0,0,0-3.724,1.016c-1.954,1.99-1.633,1.8-4.3,2.529A3.891,3.891,0,0,0,5.147,6.453c-.715,2.718-.53,2.391-2.485,4.381a3.97,3.97,0,0,0-1,3.79c.715,2.716.716,2.336,0,5.058a3.975,3.975,0,0,0,1,3.791c1.954,1.99,1.769,1.661,2.485,4.381a3.891,3.891,0,0,0,2.726,2.775c2.143.584,2.3.492,3.713,1.928a3.805,3.805,0,0,0,4.763.557,3.8,3.8,0,0,1,4.072,0A3.8,3.8,0,0,0,25.183,32.556ZM9.351,16.849a9.035,9.035,0,1,1,9.033,9.194,9.115,9.115,0,0,1-9.033-9.194Z" transform="translate(0 0.001)" fill="#e59b2b"></path></svg>