<svg xmlns="http://www.w3.org/2000/svg" width="16" height="19" viewBox="0 0 16 19"><path id="Color_Overlay" data-name="Color Overlay" d="M1532.617,37A2.542,2.542,0,0,1,1530,34.556v-5.6a2.543,2.543,0,0,1,2.617-2.444h10.765A2.544,2.544,0,0,1,1546,28.952v5.6A2.543,2.543,0,0,1,1543.382,37Zm9.556-6.889a1.238,1.238,0,0,0-.466.622,3.441,3.441,0,0,0-.142,1.109v1.564c0,2.6,3.192,2.233,2.812,0l-.834,0c0,.032,0,.07,0,.112v.461a.453.453,0,0,1-.456.447h-.163a.453.453,0,0,1-.456-.447V32.768h1.91v-.712a11.166,11.166,0,0,0-.057-1.337,1.134,1.134,0,0,0-1.234-.876A1.6,1.6,0,0,0,1542.173,30.111Zm-7.718,3.154c0,.479-.011.836,0,1,.027.286.018.621.286.812a1.352,1.352,0,0,0,1.7-.563l0,.651h.894V30.141h-1.112v3.152a5.485,5.485,0,0,1,0,.764c-.091.245-.5.5-.656.027a6.311,6.311,0,0,1,0-.77l0-3.173h-1.106Zm6.439.485,0-2.623c0-1-.757-1.6-1.783-.789l0-1.95-1.112,0L1538,35.121l.914-.013.083-.419C1540.163,35.749,1540.9,35.022,1540.895,33.75Zm-9.782-4.508,1.11,0v5.92h1.113v-5.9h1.335v-.875l-3.557,0Zm7.983,4.7V31a.5.5,0,0,1,.973,0v2.946a.5.5,0,0,1-.973,0Zm3.384-2.043.005-.606a.494.494,0,0,1,.5-.49h.068a.5.5,0,0,1,.5.49l-.013.606Zm-5.381-6.577a.981.981,0,0,1-.457-.362,1.585,1.585,0,0,1-.233-.586,5.555,5.555,0,0,1-.069-1.029V21.963a4.307,4.307,0,0,1,.126-1.174,1.308,1.308,0,0,1,.455-.677,1.325,1.325,0,0,1,.842-.257,1.559,1.559,0,0,1,.738.165,1.224,1.224,0,0,1,.475.428,1.671,1.671,0,0,1,.229.544,4.3,4.3,0,0,1,.062.854v1.32a7.125,7.125,0,0,1-.058,1.066,1.67,1.67,0,0,1-.245.634,1.156,1.156,0,0,1-.477.435,1.542,1.542,0,0,1-.673.139A1.894,1.894,0,0,1,1537.1,25.321Zm.212-4.063v2.778a.495.495,0,1,0,.985,0V21.257a.495.495,0,1,0-.985,0Zm-3.432,4.181,0-4L1532.406,18h1.266l.746,2.554.734-2.547h1.28l-1.382,3.429,0,4Zm6.486-.194a.747.747,0,0,1-.268-.334,1.543,1.543,0,0,1-.106-.435c-.014-.152-.022-.451-.022-.9v-3.52h1.019v4.062a.407.407,0,0,0,.814,0V20.057h.976v5.218h-1.24l.022-.431a1.009,1.009,0,0,1-.312.394.707.707,0,0,1-.426.131A.775.775,0,0,1,1540.365,25.244Z" transform="translate(-1530 -18)" fill="#313131"></path></svg>