<svg xmlns="http://www.w3.org/2000/svg" id="twitter-fill" width="37.28" height="37.28" viewBox="0 0 37.28 37.28"><path id="Path" d="M0,0H37.28V37.28H0Z" fill="none" fill-rule="evenodd"></path><path id="Path-2" data-name="Path" d="M33.441,6.745A13.023,13.023,0,0,1,29.71,7.767a6.518,6.518,0,0,0,2.858-3.594,12.982,12.982,0,0,1-4.126,1.577,6.5,6.5,0,0,0-11.069,5.924A18.444,18.444,0,0,1,3.983,4.885a6.506,6.506,0,0,0,2.01,8.674,6.474,6.474,0,0,1-2.942-.812v.081A6.5,6.5,0,0,0,8.263,19.2a6.54,6.54,0,0,1-2.936.112A6.5,6.5,0,0,0,11.4,23.822a13.039,13.039,0,0,1-9.617,2.69,18.376,18.376,0,0,0,9.957,2.92c11.95,0,18.485-9.9,18.485-18.485,0-.28-.008-.562-.02-.839a13.2,13.2,0,0,0,3.242-3.363Z" transform="translate(0.984 2.041)"></path></svg>