<svg xmlns="http://www.w3.org/2000/svg" width="17" height="16" viewBox="0 0 17 16"><g id="Vector_Smart_Object" data-name="Vector Smart Object" transform="translate(-1454 -18)"><g id="Vector_Smart_Object-2" data-name="Vector Smart Object" transform="translate(1454 17.628)"><g id="Group_403" data-name="Group 403"><path id="LinkedIn" d="M17,10.182v6.19H13.356V10.6c0-1.451-.527-2.441-1.846-2.441a1.991,1.991,0,0,0-1.87,1.313,2.421,2.421,0,0,0-.121.875v6.029H5.875s.049-9.782,0-10.8H9.52v1.53L9.5,7.141H9.52V7.106A3.628,3.628,0,0,1,12.8,5.323C15.2,5.323,17,6.866,17,10.182ZM2.062.372A1.873,1.873,0,1,0,2.014,4.1h.024A1.889,1.889,0,0,0,4.1,2.237,1.881,1.881,0,0,0,2.062.372Zm-1.846,16H3.86V5.576H.216Z" fill="#313131"></path></g></g><path id="Color_Overlay" data-name="Color Overlay" d="M1467.356,34V28.225c0-1.452-.527-2.442-1.845-2.442a1.994,1.994,0,0,0-1.87,1.313,2.434,2.434,0,0,0-.121.875V34h-3.644s.049-9.782,0-10.8h3.644v1.53l-.024.035h.024v-.035a3.628,3.628,0,0,1,3.285-1.784c2.4,0,4.2,1.543,4.2,4.859V34Zm-13.138,0V23.2h3.643V34Zm1.8-12.269a2.086,2.086,0,1,1,.024,0Z" fill="#313131"></path></g></svg>