<svg xmlns="http://www.w3.org/2000/svg" width="15" height="16" viewBox="0 0 15 16"><g id="Vector_Smart_Object_copy" data-name="Vector Smart Object copy" transform="translate(-1417 -18)"><g id="Vector_Smart_Object_copy-2" data-name="Vector Smart Object copy" transform="translate(1417 18)"><g id="Vector_Smart_Object" data-name="Vector Smart Object"><g id="Vector_Smart_Object-2" data-name="Vector Smart Object" transform="translate(-0.214)"><g id="Group_388" data-name="Group 388"><g id="Group_387" data-name="Group 387"><path id="Path_917" data-name="Path 917" d="M9.978,0H6.3A5.371,5.371,0,0,0,2.5,1.248,3.824,3.824,0,0,0,1.219,4.043,3.235,3.235,0,0,0,4.551,7.32c.208,0,.439-.022.642-.042l-.03.076a1.786,1.786,0,0,0-.169.738,2.136,2.136,0,0,0,.567,1.371L5.6,9.51l-.062,0a8.316,8.316,0,0,0-3.772.956A3.018,3.018,0,0,0,.214,13.016C.214,14.5,1.549,16,4.531,16,8,16,9.812,14.016,9.812,12.057A3.663,3.663,0,0,0,8.123,9.132L7.39,8.54a1.132,1.132,0,0,1-.509-.886,1.429,1.429,0,0,1,.532-.99l.026-.027a3.562,3.562,0,0,0,1.69-2.968A3.53,3.53,0,0,0,7.7.851H8.926A.076.076,0,0,0,8.968.838L10.02.153A.084.084,0,0,0,10.054.06.08.08,0,0,0,9.978,0ZM5.515,15.126c-2.114,0-3.534-1.024-3.534-2.547a2.255,2.255,0,0,1,1.725-2.148,7.84,7.84,0,0,1,2.11-.336,3.13,3.13,0,0,1,.461.021c1.479,1.091,2.19,1.665,2.19,2.756C8.468,14.262,7.336,15.126,5.515,15.126ZM5.5,6.735c-1.774,0-2.51-2.418-2.51-3.713a2.432,2.432,0,0,1,.441-1.545A1.835,1.835,0,0,1,4.833.788c1.629,0,2.529,2.27,2.529,3.839a2.192,2.192,0,0,1-.5,1.524A2.021,2.021,0,0,1,5.5,6.735Z" fill="#313131"></path><path id="Path_918" data-name="Path 918" d="M15.135,7.473H13.2v-2a.081.081,0,0,0-.08-.083h-.834a.081.081,0,0,0-.08.083v2H10.273a.081.081,0,0,0-.08.083v.876a.081.081,0,0,0,.08.083H12.2v2.016a.081.081,0,0,0,.08.083h.834a.081.081,0,0,0,.08-.083V8.514h1.939a.081.081,0,0,0,.08-.083V7.555A.081.081,0,0,0,15.135,7.473Z" fill="#313131"></path></g></g></g><path id="Color_Overlay" data-name="Color Overlay" d="M0,13.016A3.018,3.018,0,0,1,1.546,10.47a8.315,8.315,0,0,1,3.773-.956l.062,0-.035-.047a2.137,2.137,0,0,1-.567-1.371,1.789,1.789,0,0,1,.169-.739l.03-.075c-.2.02-.434.042-.642.042A3.235,3.235,0,0,1,1,4.042,3.824,3.824,0,0,1,2.287,1.248,5.373,5.373,0,0,1,6.083,0h3.68a.079.079,0,0,1,.076.06.085.085,0,0,1-.034.093L8.753.839a.079.079,0,0,1-.043.012H7.49A3.53,3.53,0,0,1,8.914,3.668,3.562,3.562,0,0,1,7.223,6.636L7.2,6.664a1.429,1.429,0,0,0-.532.99,1.133,1.133,0,0,0,.51.887l.734.592A3.665,3.665,0,0,1,9.6,12.057C9.6,14.016,7.783,16,4.316,16,1.334,16,0,14.5,0,13.016ZM3.492,10.43a2.255,2.255,0,0,0-1.725,2.148c0,1.524,1.42,2.547,3.534,2.547,1.821,0,2.952-.863,2.952-2.254,0-1.091-.711-1.664-2.19-2.756A3.171,3.171,0,0,0,5.6,10.1,7.843,7.843,0,0,0,3.492,10.43ZM3.212,1.477a2.43,2.43,0,0,0-.441,1.545c0,1.295.736,3.712,2.51,3.712a2.017,2.017,0,0,0,1.365-.584,2.192,2.192,0,0,0,.5-1.524c0-1.569-.9-3.839-2.529-3.839A1.834,1.834,0,0,0,3.212,1.477Zm8.855,9.136a.081.081,0,0,1-.08-.082V8.515H10.059a.081.081,0,0,1-.08-.082V7.555a.081.081,0,0,1,.08-.082h1.929v-2a.081.081,0,0,1,.08-.082H12.9a.081.081,0,0,1,.08.082v2H14.92a.081.081,0,0,1,.08.082v.876a.081.081,0,0,1-.08.083H12.981v2.017a.081.081,0,0,1-.08.082Z" fill="#313131"></path></g><g id="Vector_Smart_Object_copy-3" data-name="Vector Smart Object copy"><g id="Vector_Smart_Object_copy-4" data-name="Vector Smart Object copy" transform="translate(-0.214)"><g id="Group_392" data-name="Group 392"><g id="Group_391" data-name="Group 391"><path id="Path_921" data-name="Path 921" d="M9.978,0H6.3A5.371,5.371,0,0,0,2.5,1.248,3.824,3.824,0,0,0,1.219,4.043,3.235,3.235,0,0,0,4.551,7.32c.208,0,.439-.022.642-.042l-.03.076a1.786,1.786,0,0,0-.169.738,2.136,2.136,0,0,0,.567,1.371L5.6,9.51l-.062,0a8.316,8.316,0,0,0-3.772.956A3.018,3.018,0,0,0,.214,13.016C.214,14.5,1.549,16,4.531,16,8,16,9.812,14.016,9.812,12.057A3.663,3.663,0,0,0,8.123,9.132L7.39,8.54a1.132,1.132,0,0,1-.509-.886,1.429,1.429,0,0,1,.532-.99l.026-.027a3.562,3.562,0,0,0,1.69-2.968A3.53,3.53,0,0,0,7.7.851H8.926A.076.076,0,0,0,8.968.838L10.02.153A.084.084,0,0,0,10.054.06.08.08,0,0,0,9.978,0ZM5.515,15.126c-2.114,0-3.534-1.024-3.534-2.547a2.255,2.255,0,0,1,1.725-2.148,7.84,7.84,0,0,1,2.11-.336,3.13,3.13,0,0,1,.461.021c1.479,1.091,2.19,1.665,2.19,2.756C8.468,14.262,7.336,15.126,5.515,15.126ZM5.5,6.735c-1.774,0-2.51-2.418-2.51-3.713a2.432,2.432,0,0,1,.441-1.545A1.835,1.835,0,0,1,4.833.788c1.629,0,2.529,2.27,2.529,3.839a2.192,2.192,0,0,1-.5,1.524A2.021,2.021,0,0,1,5.5,6.735Z" fill="#313131"></path><path id="Path_922" data-name="Path 922" d="M15.135,7.473H13.2v-2a.081.081,0,0,0-.08-.083h-.834a.081.081,0,0,0-.08.083v2H10.273a.081.081,0,0,0-.08.083v.876a.081.081,0,0,0,.08.083H12.2v2.016a.081.081,0,0,0,.08.083h.834a.081.081,0,0,0,.08-.083V8.514h1.939a.081.081,0,0,0,.08-.083V7.555A.081.081,0,0,0,15.135,7.473Z" fill="#313131"></path></g></g></g><path id="Color_Overlay-2" data-name="Color Overlay" d="M0,13.016A3.018,3.018,0,0,1,1.546,10.47a8.315,8.315,0,0,1,3.773-.956l.062,0-.035-.047a2.137,2.137,0,0,1-.567-1.371,1.789,1.789,0,0,1,.169-.739l.03-.075c-.2.02-.434.042-.642.042A3.235,3.235,0,0,1,1,4.042,3.824,3.824,0,0,1,2.287,1.248,5.373,5.373,0,0,1,6.083,0h3.68a.079.079,0,0,1,.076.06.085.085,0,0,1-.034.093L8.753.839a.079.079,0,0,1-.043.012H7.49A3.53,3.53,0,0,1,8.914,3.668,3.562,3.562,0,0,1,7.223,6.636L7.2,6.664a1.429,1.429,0,0,0-.532.99,1.133,1.133,0,0,0,.51.887l.734.592A3.665,3.665,0,0,1,9.6,12.057C9.6,14.016,7.783,16,4.316,16,1.334,16,0,14.5,0,13.016ZM3.492,10.43a2.255,2.255,0,0,0-1.725,2.148c0,1.524,1.42,2.547,3.534,2.547,1.821,0,2.952-.863,2.952-2.254,0-1.091-.711-1.664-2.19-2.756A3.171,3.171,0,0,0,5.6,10.1,7.843,7.843,0,0,0,3.492,10.43ZM3.212,1.477a2.43,2.43,0,0,0-.441,1.545c0,1.295.736,3.712,2.51,3.712a2.017,2.017,0,0,0,1.365-.584,2.192,2.192,0,0,0,.5-1.524c0-1.569-.9-3.839-2.529-3.839A1.834,1.834,0,0,0,3.212,1.477Zm8.855,9.136a.081.081,0,0,1-.08-.082V8.515H10.059a.081.081,0,0,1-.08-.082V7.555a.081.081,0,0,1,.08-.082h1.929v-2a.081.081,0,0,1,.08-.082H12.9a.081.081,0,0,1,.08.082v2H14.92a.081.081,0,0,1,.08.082v.876a.081.081,0,0,1-.08.083H12.981v2.017a.081.081,0,0,1-.08.082Z" fill="#313131"></path></g></g><path id="Color_Overlay-3" data-name="Color Overlay" d="M1421.315,34c-2.981,0-4.316-1.5-4.316-2.984,0-.056,0-.131.012-.222a3.058,3.058,0,0,1,1.534-2.323,8.2,8.2,0,0,1,3.709-.952l.064,0,.062,0-.035-.047a2.134,2.134,0,0,1-.567-1.372,1.786,1.786,0,0,1,.169-.738l.031-.076c-.2.02-.434.042-.642.042a3.72,3.72,0,0,1-.853-.1A3.23,3.23,0,0,1,1418,22.043h0a3.824,3.824,0,0,1,1.282-2.794,5.369,5.369,0,0,1,3.8-1.248h3.68a.08.08,0,0,1,.077.059.081.081,0,0,1-.034.093l-.416.271-.636.416-.014.007a.078.078,0,0,1-.029.005h-1.22a3.474,3.474,0,0,1-.266,5.785l-.026.027a1.43,1.43,0,0,0-.532.99,1.132,1.132,0,0,0,.509.886l.734.592a3.663,3.663,0,0,1,1.689,2.924c0,1.96-1.814,3.944-5.282,3.944Zm1.243-5.9a7.716,7.716,0,0,0-2.066.335,2.253,2.253,0,0,0-1.724,2.147c0,1.524,1.42,2.547,3.533,2.547q.235,0,.454-.019c1.553-.133,2.5-.964,2.5-2.235,0-1.091-.71-1.664-2.19-2.756a3.145,3.145,0,0,0-.461-.021Zm-2.345-8.619a2.365,2.365,0,0,0-.441,1.454c0,.031,0,.061,0,.092,0,1.294.736,3.713,2.51,3.713a1.961,1.961,0,0,0,.868-.223,1.888,1.888,0,0,0,.5-.361,2.193,2.193,0,0,0,.5-1.523,5.116,5.116,0,0,0-.113-1.034c-.289-1.374-1.123-2.805-2.417-2.805A1.832,1.832,0,0,0,1420.213,19.477Zm8.854,9.137a.081.081,0,0,1-.079-.083V26.515h-1.929a.082.082,0,0,1-.08-.083v-.877a.081.081,0,0,1,.08-.083h1.929v-2a.081.081,0,0,1,.08-.083h.833a.081.081,0,0,1,.08.083v2h1.939a.081.081,0,0,1,.08.083v.876a.082.082,0,0,1-.023.059.078.078,0,0,1-.057.025h-1.939v2.016a.081.081,0,0,1-.08.083Z" fill="#313131"></path></g></svg>