<svg xmlns="http://www.w3.org/2000/svg" id="youtube-fill" width="37" height="37" viewBox="0 0 37 37"><path id="Path" d="M0,0H37V37H0Z" fill="none" fill-rule="evenodd"></path><path id="Shape" d="M32.292,7.9A48.911,48.911,0,0,1,33,16.5a48.911,48.911,0,0,1-.708,8.6,4.377,4.377,0,0,1-3,3.159C26.639,29,17.5,29,17.5,29s-9.134,0-11.788-.744a4.376,4.376,0,0,1-3-3.159A48.911,48.911,0,0,1,2,16.5a48.911,48.911,0,0,1,.708-8.6,4.377,4.377,0,0,1,3-3.159C8.366,4,17.5,4,17.5,4s9.139,0,11.788.744A4.376,4.376,0,0,1,32.292,7.9ZM14.4,21.969,23.7,16.5l-9.3-5.469Z" transform="translate(1 2)"></path></svg>